<?xml version="1.0" encoding="UTF-8" standalone="no"?>
<!DOCTYPE svg PUBLIC "-//W3C//DTD SVG 1.1//EN" "http://www.w3.org/Graphics/SVG/1.1/DTD/svg11.dtd">
<svg width="100%" height="100%" viewBox="0 0 212 198" version="1.1" xmlns="http://www.w3.org/2000/svg" xmlns:xlink="http://www.w3.org/1999/xlink" xml:space="preserve" xmlns:serif="http://www.serif.com/" style="fill-rule:evenodd;clip-rule:evenodd;stroke-linejoin:round;stroke-miterlimit:2;">
    <g transform="matrix(1,0,0,1,-22.2148,-36.0462)">
        <g transform="matrix(4.2314,0,0,4.2314,1874.51,-1967.02)">
            <g transform="matrix(1,0,0,1,-116.35,-37.8403)">
                <g id="g6303">
                    <g id="g6307">
                        <g id="path6309" transform="matrix(0.377124,0,0,0.377124,-152.866,339.882)">
                            <path d="M-367.342,511.956C-367.342,519.229 -373.327,525.214 -380.6,525.214C-387.873,525.214 -393.858,519.229 -393.858,511.956C-393.858,504.683 -387.873,498.698 -380.6,498.698C-373.327,498.698 -367.342,504.683 -367.342,511.956Z" style="fill-rule:nonzero;"/>
                        </g>
                        <path id="path6311" d="M-308.9,511.221C-316.867,515.821 -321.4,523.677 -321.4,532.877L-303.9,532.877C-303.866,530.121 -302.362,527.716 -300.118,526.44L-308.9,511.221ZM-283.9,511.221L-292.712,526.471C-290.473,527.748 -288.933,530.125 -288.9,532.877L-271.4,532.877C-271.4,523.677 -275.932,515.821 -283.9,511.221ZM-300.181,539.44L-308.9,554.502C-300.932,559.102 -291.867,559.102 -283.9,554.502L-292.618,539.44C-293.731,540.094 -295.016,540.471 -296.4,540.471C-297.776,540.471 -299.071,540.088 -300.181,539.44Z" style="fill-rule:nonzero;"/>
                    </g>
                </g>
            </g>
        </g>
    </g>
</svg>
